<svg xmlns="http://www.w3.org/2000/svg" xmlns:xlink="http://www.w3.org/1999/xlink" width="204" height="223" viewBox="0 0 204 223">
  <defs>
    <clipPath id="clip-PBMC_Fav">
      <rect width="204" height="223"/>
    </clipPath>
  </defs>
  <g id="PBMC_Fav" clip-path="url(#clip-PBMC_Fav)">
    <g id="PBMC" transform="translate(-110 325.062)">
      <path id="Path_2655" data-name="Path 2655" d="M166.3-320.5c-5.9,4.1-7.8,25-6.2,66,1.8,44.6,1.9,42.3-1.4,45.1-3.6,3.1-7.5,3.2-8.1.1-.3-1.2-2.1-11.2-4.2-22.2-8.5-46.1-18.9-77.3-25.5-76.3-2,.3-2,.6-2,64.8l.1,64.5,2.3-.5c1.2-.3,10.5-.5,20.7-.5s22.1.2,26.5.5l8,.5,1.1-8c9.8-67.3,12.2-98.4,9-114.4-2-9.7-3.6-13.3-7.9-17.9C175.2-322.4,170.1-323.1,166.3-320.5Z" fill="#6dc8bf"/>
      <path id="Path_2656" data-name="Path 2656" d="M218.5-298.4c-8.2,8.8-17.4,47.3-28.9,121.1-.6,4.4,2.3,2.3,8.4-6,6.6-8.8,29.2-44,44.6-69.4,8.9-14.7,9.5-15.9,8.9-19.7-1.6-10.1-10.4-21.7-20-26.2C224.9-301.7,221.5-301.7,218.5-298.4Z" fill="#6dc8bf"/>
      <path id="Path_2657" data-name="Path 2657" d="M255.7-257.4c-3,5.9-19.4,33.7-38.2,64.6-7.5,12.4-13.4,23.1-13.1,23.7,1.6,2.6,6.2.5,21.4-9.8,23-15.5,35.2-25.1,46.8-36.6,14.1-14,17.3-22,12.4-31.4-3.5-7-14.1-13.9-22.7-14.9C258.2-262.2,258.1-262.2,255.7-257.4Z" fill="#6dc8bf"/>
      <path id="Path_2658" data-name="Path 2658" d="M278.8-195.7c-34.7,23.6-58.8,46.8-62.9,60.7-2.7,8.9,2.7,16.7,14.2,20.8,14.3,5,46.3,6.5,59.8,2.8,7.9-2.2,15.8-6.5,19.7-10.8,3.8-4.2,4.2-5.9,1.8-8.2-2.1-2.1-2-2.1-17.9,1.9-24.5,6.2-39.2,6.9-50.6,2.5-6-2.2-6.9-3.2-6.9-7.9,0-5.2,6.6-10.8,27.5-23.5,28.3-17.1,32.8-20.9,37-30.8,2.1-5.1,1.9-8.2-.8-11.3a8.865,8.865,0,0,0-6.2-3.1C289.9-203,288.5-202.3,278.8-195.7Z" fill="#6dc8bf"/>
      <path id="Path_2659" data-name="Path 2659" d="M140-164.9c-12.2.6-22.7,2.2-26.2,4a3.684,3.684,0,0,0-1.8,2.8c0,1.7.4,1.8,4,1,7.3-1.6,28.5-2.6,38.1-1.8,16.3,1.4,26.8,5.7,31.6,13,3.6,5.5,4.4,16.9,1.4,21.6-6.2,9.8-27.1,14.5-55.3,12.3-17.9-1.3-19.8-1.3-19.8.5,0,4.9,42.8,7.9,59.6,4.1,15.6-3.4,26.2-11.2,30.3-22.2,4.7-12.4,1-22.2-10.9-28.1C178.7-163.9,163.7-166,140-164.9Z" fill="#6dc8bf"/>
    </g>
  </g>
</svg>
